<svg xmlns="http://www.w3.org/2000/svg" viewBox="0 0 39 21.6"><path d="M14.7 15.8c.3.6 2.7 1.5 3.3 1.4.1.6 1.2 1.9 2 2.2.6.2.4.6 0 .6-.3 0-7.5-.2-9.3-.2l.3-.1c1.4-.8 2.7-2 3.7-3.9zM19.3 0c1.2 0 2.3.3 3.3.9 1.3.8 2.6 1.8 3.1 2.2.3.3.8.7 1.2 1.4 1.5-1.5 3.4-2.3 5.3-2.4h.2c2.2 0 4.3 1 6.1 2.9.2.2.4.4.5.6v11.8c-.3-.2-.5-.4-.8-.7l-.1-.1-.1.1c-3 2.9-7.1 2.9-8.5 2.9h-.4c-2.6 0-5.5-.4-8.6-2.9-.4-.3-1.1-.9-1.5-1.8-.1 0-.2 0-.2-.1l-.4-.1c-1.1-.3-2.7-.8-3.6-2.2-2 2.2-3.6 3.8-4.6 4.6C8.6 18.3 6.6 19 4.7 19 3 19 1.4 18.4.1 17.4v-3.8c0 .1.1.3.2.4l.7 1.1c1 1 2.3 1.5 3.6 1.5 1.4 0 2.9-.5 4-1.4 1.3-1 4-4 6.3-6.6 1-1.2 2-2.2 2.5-2.8 1-1.1 2.1-1.2 2.9-.9 1.1.4 1.9 1.4 2.1 1.8.5.9-.2 2.1-.6 2.6-.9 1.1-1.4 1.3-2.2 1.2-.6-.1-1.9-.9-.3-1.5.7-.2.7-.6.5-1.2-.2-.6-1-.9-1.5-.5-2 1.5-1.8 3-1.5 3.7.3.7 1.2 1 2.1 1.2l.4.1.2.1c1.3.4 2.7.1 4.1-2 .9-1.3 2.2-3.7.4-5.2-.4-.3-1.5-1.2-2.8-2-1.4-.9-3.6-.8-5.4 1-.5.5-1.4 1.5-2.3 2.5l-.4.5c-.4.5-.9 1-1.3 1.5l-.7.8c-1.6 1.7-3.1 3.3-3.9 3.9-1.2 1.1-3.2 1.3-4.7.1-.5-.5-1.1-.4-1.7-.4-.5.1-.8.4-.8.8v-8C1.2 7.4 1.7 9 1.8 10.2v.2c.9.1 1.7.4 2.4 1 .1.1.3.2.6.2s.7-.1 1-.4c.9-.7 3.8-3.9 5.6-5.9l.2-.2c1-1.2 2.1-2.3 2.6-2.9C15.6.8 17.4 0 19.3 0zm13.1 4.9c-1.5 0-3 .7-4.1 2.1-1.7 2.1-1.7 4 .2 5.4.7.5 1.4.6 2.3.6.9-.1 1.8-.3 2.4-1.2.4-.5.3-1.2-.2-1.6-.5-.4-1.1-.3-1.5.2-.1.2-1.1.8-1.9-.2-.4-.5.1-1.5.3-1.8.8-.9 1.6-1.1 2.4-1.2.9 0 1.5.3 2.3 1.3 1.3 1.5 1.4 3.5.1 4.7-1.5 1.4-3.7 1.6-5.5 1.6-1.8 0-3.3.1-5.5-1.7-.5-.4-2-.4-2.3.1-.4.5.2 1 .7 1.4 2.7 2.1 5 2.3 7.1 2.4h.3c2 0 4.7-.3 6.7-2.2 2.4-2.3 2.7-5.3.3-7.9-1.2-1.2-2.6-2-4.1-2zM9.5 2.1c1.1 0 1.1 1 .4 1.7C9.2 4.5 6.4 7.5 6 8c-.8 1-1.7.6-2-.1-.5-1-2.1-2.9-3.6-4.1-.6-.5-.5-1.6.5-1.6h8.4l.2-.1z" fill-rule="evenodd" clip-rule="evenodd" fill="#cfc19f"/></svg>