<svg xmlns="http://www.w3.org/2000/svg" viewBox="0 0 213 32"><path d="m194.8.3 9.7 1.6 5.2 3 2.1 3 1 1.4.2-.6.1-.1v13.8l-.3-.4-.1.6-.8.8-4.2 4.3-6.9 1.9-6.1-1.6-4.4-4.5-1.6-6.4.6-1.5-1.7 1.9-5.3 7.7-4.9 4-6.1 1.5-6.3-1.5-4.9-4.5-.2-.8-.2.8-4.9 4.6-6.3 1.5-6.6-1.7-4.6-4-5.2-7.6-1.6-1.8.6 1.5-1.7 6.4-4.4 4.5-6.1 1.7-6.9-1.9-5-5.1-.2-.7v.1l-3.7 4.8-5.2 2.9-9.3 1.5v-1l-1.5-.1-5.7-1.9-4.7-3.1-3.6-3.9-1.2-1.8-1.1 2.6-7.2 3-6-1.7-4.2-4.2-.2-.8-.2.8-4.2 4.2-6 1.7-7.2-3-1.1-2.6-1.2 1.7-3.9 4.2-4.8 3.1-5.1 1.6-1.8.2v1L8 29.6l-5.1-3.1-2.9-4V8.8l5-5 6.9-1.9L18 3.5 22.3 8l1.7 6.4-.6 1.5 1.7-1.9 5.3-7.7 4.9-4L41.4.8l6.3 1.5 4.9 4.5.4 1.7.4-1.6 4.9-4.6L64.6.8l6.7 1.8 4.6 4 5.2 7.6 1.6 1.8-.6-1.5L83.8 8l4.4-4.5 6.1-1.7 6.9 1.9 5 5.1.2.7 3.7-4.8 5.2-2.9 9.3-1.5v1l1.5.1 5.7 1.9 4.7 3.1 3.6 3.9 1.2 1.8 1.1-2.6 7.2-3 6 1.7 4.2 4.2 4.2-4.2 6-1.7 7.1 3 1.1 2.6 1.2-1.7 3.9-4.2 4.8-3.1 5.1-1.6 1.8-.2v-1zM64.7 3.5l-5.1 1.2-3.9 3.6-1.4 5.2 1.2 4.5 3.2 3.3 4.5 1.3 5.4-2.3 2.4-6 3.8 5.5 3.4 3.6 4.2 2.8 4.9 1.6 3.6.3v.3l6.1-1 4.3-2.5 3-4.1.8-4.2-.2-.7.2-.8-1.3-4.9-4-4.2-5.5-1.5-4.7 1.3-3.5 3.5-1.3 4.9 3.1 7.5-3.2-1.1-3.1-2.1-2.4-2.7L74 8.2l-4-3.5c-.1 0-5.3-1.2-5.3-1.2zm-23.3 0-5.2 1.3-4 3.4-5.1 7.4-2.8 3-3.2 2.1-2.6.9.8-2.5 2-4.9L20 9.3l-3.5-3.5-4.8-1.3L6.3 6l-4.1 4.1L1 14.6l.3 1.2L1 17l.8 3.8 3 4.1 4.3 2.5 6.1 1v-.3l3.8-.3 4.7-1.5 4.2-2.8 3.5-3.7 3.7-5.4 2.4 5.9 5.4 2.3 4.5-1.3 3.3-3.2 1.2-4.5-1.4-5.2-3.9-3.6-5.2-1.3zm80.6-.2-6.1 1-4.3 2.5-3 4-.8 4.1.2.7-.2.8 1.3 4.9 4.1 4.1 5.5 1.6 4.7-1.3 3.5-3.5 1.3-4.9-3.1-7.5 3.2 1.1 3.1 2.1 2.4 2.7 5.2 7.6 4 3.5 5.2 1.3 5.1-1.2 3.9-3.6 1.1-4.4-.2-.8.2-.8-1-3.7-3.2-3.3-4.5-1.3-5.4 2.3-2.4 6-3.8-5.5-3.4-3.6-4.2-2.8-4.9-1.6-3.5-.2v-.3zm75.4 0v.3l-3.8.4-4.7 1.5-4.2 2.8-3.5 3.7-3.7 5.3-2.4-5.9-5.4-2.3-4.5 1.2-3.3 3.3-1 3.7.2.8-.1.9 1.2 4.4 3.9 3.6 5.1 1.2 5.2-1.3 4-3.4 5.1-7.4 2.8-3.1 3.2-2.1 2.6-.9-.8 2.5-2 4.9 1.3 4.9 3.5 3.5 4.8 1.3 5.5-1.5 4-4.1 1.1-4.2-.3-1.5.4-1.4-.7-3.5-3-4.1-4.3-2.5-6.2-1zM64.7 4.8l4.6 1.1L73 9.1l2.8 4 2.3 3.4 2.7 3.1 3.4 2.3 3.9 1.2 4.1.4 4.2-.9 3.3-2.8 1.2-4.1-2-4.7-4.6-2-3.5 1.5-1.4 3.6 3.6 3.7 2.6-1.9-1.8-1.8-1.6-1.6 1.6-1.6 3.5 1.5 1.4 3.5-1.7 3.9-4 1.3-4.8-2-2-4.9 1.1-4.1 3-3L94.4 6l4.9 1.4 3.6 3.6 1.3 5-.9 4.4-2.7 3.6-3.9 2.2-4.4.7-4.7-.4-4.6-1.7-4-2.6-3.3-3.5-2.7-3.9-2-3.1L68.3 9l-3.6-1-4.1 1.4-1.7 3.9 1.2 3.1 3.1 1.3 3.2-3.2-1.9-2.2-1.2.9.3.6.5 2.2-2.2.5-1.8-3.3 1.2-3.1L64.4 9l3.7 1.7 1.5 3.8-1.9 4.6-4.5 1.9-3.8-1-2.8-2.8-1-3.8 1.2-4.5 3.4-3.1 4.5-1zm56 0 4.7.4 4.5 1.5 4 2.6 3.2 3.5 2.7 3.9 2.2 3.1 2.7 2.7 3.6 1 4.1-1.4 1.7-3.9-1.2-3.1-3.1-1.3-3.1 3.2 1.9 2.3 1.2-.9-.3-.6-.5-2.2 2.2-.5 1.8 3.4-1.2 3.1-3.1 1.1-3.7-1.6-1.4-3.9 1.9-4.6 4.5-1.9 3.8 1.1 2.8 2.8 1 3.8-1.2 4.5L153 26l-4.5 1-4.6-1.1-3.7-3.2-2.8-4-2.3-3.4-2.8-3.1-3.4-2.3-3.9-1.2-4.3-.7-4.2.9-3.3 2.8-1.2 4.1 2 4.7 4.6 2 3.5-1.5 1.4-3.6-3.6-3.7-2.6 1.9 1.8 1.8 1.6 1.6-1.6 1.6-3.5-1.5-1.4-3.5 1.8-3.8 4-1.3 4.8 2 2 4.9-1.1 4.1-3 3-4.1 1.1-4.9-1.4-3.6-3.6-1.3-5 .9-4.4 2.7-3.6 3.9-2.2 4.4-.6zm-79.3 0 4.4 1.1L49.2 9l1.2 4.5-1 3.8-2.8 2.7-3.7 1-4.5-1.9-1.9-4.5 1.4-3.9 3.7-1.6 3.1 1.1 1.2 3.1-1.8 3.3-2.2-.5.5-2.2.3-.6-1.2-.9-1.9 2.2 3.2 3.2 3.1-1.3 1.2-3.1-1.7-4-4-1.4-3.6 1-2.7 2.7-2.1 3.2-2.7 3.9-3.3 3.5-4 2.6-4.5 1.4-4.7.4-4.3-.7-3.9-2.2-2.7-3.6-.9-4.4 1.3-5 3.6-3.6 4.9-1.3L15.9 7l3 3 1.1 4.1-2 4.9-4.8 2-4-1.2L7.4 16l1.4-3.5 3.5-1.5 1.6 1.6-1.6 1.6-1.8 1.8 2.6 1.8 3.6-3.7-1.5-3.6L11.7 9 7 11l-1.9 4.7 1.2 4.1 3.3 2.7 4.2.9 4.1-.4 3.9-1.3 3.4-2.3 2.8-3.1 2.3-3.4 2.8-4 3.7-3.1 4.6-1zm157.2 0 4.4.7 3.9 2.2 2.6 3.6.9 4.4-1.3 5-3.6 3.6-4.9 1.3-4.1-1.1-3-3-1.1-4.1 2-4.9 4.8-2 4 1.2 1.7 3.8-1.4 3.5-3.5 1.5-1.6-1.6 1.6-1.7 1.8-1.8-2.6-1.8-3.6 3.7 1.5 3.6 3.5 1.5 4.7-2 1.9-4.7-1.2-4.1-3.3-2.7-4.1-.9-4.1.4-3.9 1.3-3.4 2.3-2.7 3.1-2.3 3.4-2.8 4-3.7 3.1-4.6 1.1-4.4-1-3.4-3.1-1.2-4.5 1-3.8 2.8-2.8 3.8-1.1 4.5 1.9 1.8 4.5-1.4 3.9-3.7 1.6-3.1-1.1-1.3-3.1 1.8-3.3 2.2.5-.5 2.2-.3.6 1.2.9 2-2.2-3.1-3.2-3.1 1.3-1.2 3.1 1.7 4 4.1 1.4 3.6-1 2.7-2.7 2.1-3.2 2.7-3.9 3.2-3.5 4-2.6 4.5-1.4 4.5-.3z" fill-rule="evenodd" clip-rule="evenodd" fill="#cfc19f"/></svg>