<svg width="300" height="300" xmlns="http://www.w3.org/2000/svg" xmlns:xlink="http://www.w3.org/1999/xlink"><defs><filter color-interpolation-filters="auto" id="a"><feColorMatrix in="SourceGraphic" values="0 0 0 0 0.811765 0 0 0 0 0.756863 0 0 0 0 0.623529 0 0 0 1.000000 0"/></filter><path id="b" d="M0 0h300v300H0z"/></defs><g filter="url(#a)" fill="none" fill-rule="evenodd"><mask id="c" fill="#fff"><use xlink:href="#b"/></mask><path d="M150 294.982C70.055 294.982 5.02 229.942 5.02 150 5.02 70.056 70.057 5.02 150 5.02c79.932 0 144.968 65.035 144.968 144.979 0 79.943-65.036 144.982-144.969 144.982M150-.001C67.288 0 0 67.29 0 150c-.001 82.712 67.288 150 149.989 150C232.686 300 300 232.711 300 150 300 67.288 232.715 0 150 0" fill="#B8A279" mask="url(#c)"/><path d="M150.005 290.712C72.401 290.712 9.277 227.591 9.277 150 9.277 72.413 72.4 9.291 150.005 9.291 227.6 9.291 290.723 72.413 290.723 150c0 77.59-63.124 140.712-140.718 140.712m0-282.865C71.618 7.847 7.847 71.616 7.847 150c0 78.384 63.771 142.153 142.158 142.153 78.377 0 142.148-63.769 142.148-142.153 0-78.384-63.771-142.153-142.148-142.153" fill="#B8A279"/><path fill="#B8A279" d="m156.338 12.076-12.676-.004 6.302 10.866zm-20.523.6-12.073 1.86 7.558 9.609zm-20.523 3.622-12.073 3.688 9.182 8.384zm-19.316 6.64-11.469 5.306 10.416 6.766zm-18.303 9.658-10.067 6.88 10.865 5.192zM60.678 44.668l-9.37 8.489L63.38 56.74zM46.337 59.155l-7.705 9.695 12.072 1.774zM33.885 75.453l-6.118 10.865 12.072-.05zM23.838 94.165l-4.522 11.469 12.072-1.861zm-7.101 19.315-2.854 12.073 12.073-3.652zm-3.744 19.92-.92 12.676 10.865-5.49zm-.921 20.524.91 12.676 9.956-7.117zm1.811 21.126 2.84 12.073 9.233-8.353zm5.433 19.92 4.507 11.469 7.565-9.542zm7.847 18.712 6.398 10.865 6.278-10.754zm10.865 17.422 7.674 9.741 4.399-11.469zm22.608 24.228 2.744-12.072-12.072 3.55zm16.941 12.072.894-12.072-11.469 5.163zm6.326 4.336 11.47 5.322-.991-12.072zm19.317 8.261 12.072 3.701-2.826-12.072zm19.919 6.061 12.072 1.866-4.452-11.47zm20.523 2.466 12.676.003-6.302-10.865zm20.523-.6 12.073-1.858-7.558-9.611zm20.523-3.622 12.073-3.692-9.182-8.38zm19.316-7.244 11.469-5.306-10.417-6.766zm18.303-9.054 10.067-6.882-10.865-5.19zm16.997-12.072 9.368-8.488-12.072-3.585zm14.339-14.487 7.705-9.695-12.072-1.774zm12.456-16.299 6.114-10.864-12.072.046zm10.047-18.711 4.518-11.47-12.072 1.862zm7.097-19.316 2.854-12.073-12.073 3.652zm3.744-19.92.92-12.676-10.865 5.493zm.921-20.523-.91-12.676-9.956 7.116zm-1.811-21.127-2.844-12.072-9.229 8.353zm-5.433-19.919-4.507-11.469-7.565 9.541zm-7.847-18.712-6.398-10.866-6.278 10.754zM261.972 69.5l-7.676-9.741-4.397 11.468zm-22.608-24.832L236.62 56.74l12.072-3.547zM222.423 33.2l-.894 12.072 11.469-5.164zm-6.326-4.336-11.47-5.323.991 12.073zm-19.317-8.865-12.072-3.701 2.826 12.072zm-19.919-5.457-12.072-1.866 4.449 11.469z"/><path d="M149.702 273.824c-68.103 0-123.512-55.412-123.512-123.522 0-68.106 55.41-123.523 123.512-123.523 68.106 0 123.501 55.417 123.501 123.523 0 68.11-55.395 123.522-123.501 123.522m0-248.472c-68.9 0-124.954 56.046-124.954 124.95s56.054 124.95 124.954 124.95c68.889 0 124.946-56.046 124.946-124.95S218.59 25.352 149.702 25.352m-2.418-2.721-7.116-9.955-5.56 10.865z" fill="#B8A279"/><path fill="#B8A279" d="m119.614 15.694-3.719 12.073 12.073-2.845zm-19.9 6.036-1.927 12.073 11.469-4.507zm-18.721 8.451-.108 12.676 10.866-6.396zm-5.54 16.468-11.47-4.395 1.729 12.072zM60.966 58.884l-12.073-2.747 3.55 12.072zM48.29 73.328l-12.073-.893 5.167 11.468zM38.028 89.336l-12.072.99 6.744 10.479zm-7.847 16.901-12.072 2.826 8.371 9.247zm-5.433 18.713-11.468 4.449 9.606 7.623zm-1.81 18.712-10.866 6.302 10.862 6.374zm-.05 19.316-9.608 7.555 11.468 4.517zm3.602 18.712-8.381 9.18 12.072 2.893zm5.626 18.109-6.764 10.413 12.073 1.056zm9.292 16.901-5.19 10.865 12.072-.79zm11.07 15.09-3.585 12.073 12.073-2.707zm13.283 13.884-1.777 12.072 11.469-4.366zm15.124 12.072.054 12.073 10.812-5.958zm16.902 9.054 1.86 12.073 9.609-7.548zm17.505 6.037 3.654 12.072 8.418-9.221zm18.712 4.225 5.494 10.866 7.182-9.945zm18.712.913 7.116 9.953 5.56-10.866zm27.67 6.935 3.719-12.073-12.073 2.847zm19.9-6.037 1.927-12.072-11.469 4.507zm18.717-9.054.112-12.676-10.866 6.396zm5.544-15.868 11.47 4.4-1.732-12.073zm14.487-12.228 12.073 2.744-3.548-12.073zm12.676-14.447 12.073.893-5.164-11.469zm10.262-16.008 12.072-.991-6.746-10.478zm7.847-17.505 12.072-2.827-8.371-9.246zm5.433-18.109 11.468-4.45-9.606-7.623zm12.676-25.018-10.862-6.37-.004 12.676zm-10.816-13.01 9.608-7.557-11.468-4.516zm-3.604-18.713 8.383-9.178-12.072-2.894zm-5.628-18.108 6.768-10.413-12.073-1.056zm-9.288-16.902 5.19-10.865-12.072.795zm-11.07-15.693 3.585-12.073-12.073 2.705zm-13.28-13.884 1.774-12.072-11.469 4.366zm-15.127-11.469-.05-12.072-10.816 5.957zm-16.902-9.054-1.86-12.073-9.609 7.551zm-17.505-6.036-3.652-12.073-8.42 9.218zm-18.712-4.226-5.498-10.865-7.178 9.945z"/></g></svg>